PathFileType	4	(X/Y/Z)	C:\Documents and Settings\mvidt\Desktop\Forward_reach_ACS_12-5-11\acs_forward8.trc
DataRate	CameraRate	NumFrames	NumMarkers	Units	OrigDataRate	OrigDataStartFrame	OrigNumFrames
200.00	200.00	      13	10	mm	200.00	876	      1000
Frame#	Time	R.Clavicle			C7			R.Shoulder			R.Bicep			R.Elbow.Lateral			R.Forearm			R.Radius			Handle			R.Elbow.Medial			R.Ulna			
		X1	Y1	Z1	X2	Y2	Z2	X3	Y3	Z3	X4	Y4	Z4	X5	Y5	Z5	X6	Y6	Z6	X7	Y7	Z7	X8	Y8	Z8	X9	Y9	Z9	X10	Y10	Z10	

876	4.375	-384.89661	338.15558	306.65067				-431.02585	164.67873	315.97849	-374.20233	122.72134	124.48376	-401.56561	85.12027	18.41711	-309.59814	94.77534	73.98407	-165.91310	115.97861	118.00047	-49.49561	111.22393	173.82805	-412.67249	165.24130	-12.39124	-154.90747	64.27424	50.61702	
877	4.380	-384.89661	338.15558	306.65067				-431.02585	164.67873	315.97849	-374.20233	122.72134	124.48376	-401.72693	85.17469	18.32732	-309.59814	94.77534	73.98407	-165.64568	115.79772	118.04515	-49.63884	111.56352	173.91071	-412.86169	165.29106	-12.40168	-154.90747	64.27424	50.61702	
878	4.385	-384.89661	338.15558	306.65067				-431.02585	164.67873	315.97849	-374.20233	122.72134	124.48376	-401.88828	85.22911	18.23753	-309.59814	94.77534	73.98407	-165.64568	115.79772	118.04515	-49.63846	111.73460	174.05688	-413.05087	165.34081	-12.41199	-155.23076	64.62012	50.42378	
879	4.390	-384.89661	338.15558	306.65067				-430.55661	164.39864	316.10544	-374.20233	122.72134	124.48376	-402.04959	85.28352	18.14774	-309.59814	94.77534	73.98407	-165.64568	115.79772	118.04515	-49.63846	111.73460	174.05688	-413.56229	165.30560	-12.34737	-155.23076	64.62012	50.42378	
880	4.395	-384.89661	338.15558	306.65067				-430.55661	164.39864	316.10544	-374.20233	122.72134	124.48376	-402.21091	85.33794	18.05795	-309.25903	94.77035	74.20098	-165.64568	115.79772	118.04515	-49.63846	111.73460	174.05688	-413.75122	165.35474	-12.35696	-155.23076	64.62012	50.42378	
881	4.400	-384.89661	338.15558	306.65067				-430.55661	164.39864	316.10544	-374.20233	122.72134	124.48376	-402.37222	85.39236	17.96816	-309.25903	94.77035	74.20098	-165.80553	116.12047	118.12037	-49.63846	111.73460	174.05688	-413.94009	165.40385	-12.36642	-155.00327	64.95684	50.50595	
882	4.405	-384.89661	338.15558	306.65067				-430.55661	164.39864	316.10544	-374.20233	122.72134	124.48376	-402.53354	85.44678	17.87837	-309.95642	94.37609	74.30889	-165.64568	115.79772	118.04515	-49.63846	111.73460	174.05688	-414.12891	165.45296	-12.37576	-155.03078	64.83422	50.26540	
883	4.410	-384.89661	338.15558	306.65067				-430.55661	164.39864	316.10544	-374.22662	121.90222	124.30170	-402.69489	85.50120	17.78858	-309.95642	94.37609	74.30889	-165.64568	115.79772	118.04515	-49.63846	111.73460	174.05688	-414.31766	165.50206	-12.38499	-155.03078	64.83422	50.26540	
884	4.415	-384.89661	338.15558	306.65067				-430.55661	164.39864	316.10544	-373.98251	121.61591	124.27466	-402.85620	85.55562	17.69879	-309.95642	94.37609	74.30889	-165.64568	115.79772	118.04515	-49.63846	111.73460	174.05688	-414.50632	165.55113	-12.39409	-155.03078	64.83422	50.26540	
885	4.420	-384.89661	338.15558	306.65067				-430.55661	164.39864	316.10544	-373.93594	122.32477	124.43565	-403.01755	85.61004	17.60900	-309.58340	94.12021	74.33441	-165.80553	116.12047	118.12037	-49.63846	111.73460	174.05688	-414.69492	165.60020	-12.40308	-154.76280	64.63631	50.55657	
886	4.425	-384.89661	338.15558	306.65067				-430.55661	164.39864	316.10544	-372.06073	124.85166	123.07547	-403.17886	85.66446	17.51921	-309.58340	94.12021	74.33441	-165.64568	115.79772	118.04515	-49.17075	111.81393	174.26001	-414.88342	165.64926	-12.41194	-155.03078	64.83422	50.26540	
887	4.430	-384.89661	338.15558	306.65067				-430.55661	164.39864	316.10544	-372.36456	125.13114	123.07846	-403.34018	85.71887	17.42942	-309.58340	94.12021	74.33441	-165.64568	115.79772	118.04515	-49.20496	111.98639	174.16829	-415.07187	165.69830	-12.42068	-155.03078	64.83422	50.26540	
888	4.435	-384.89661	338.15558	306.65067				-430.55661	164.39864	316.10544	-372.06073	124.85166	123.07547	-403.50150	85.77329	17.33963	-309.43781	94.68716	74.47958	-165.64568	115.79772	118.04515	-49.20496	111.98639	174.16829	-415.26022	165.74733	-12.42931	-155.00327	64.95684	50.50595	
